<?xml version="1.0" encoding="utf-8"?>
<!-- Generator: Adobe Illustrator 22.0.0, SVG Export Plug-In . SVG Version: 6.00 Build 0)  -->
<svg version="1.1" id="Capa_1" xmlns="http://www.w3.org/2000/svg" xmlns:xlink="http://www.w3.org/1999/xlink" x="0px" y="0px"
	 viewBox="0 0 514.1 512.2" style="enable-background:new 0 0 514.1 512.2;" xml:space="preserve">
<style type="text/css">
	.st0{fill:#BC3432;}
</style>
<path class="st0" d="M258,1C116.6,1,2,115.6,2,257s114.6,256,256,256s256-114.6,256-256S399.4,1,258,1z M258,494.1
	c-128.6,0-233.3-104.6-233.3-233.2C24.7,132.2,129.4,27.6,258,27.6s233.2,104.6,233.2,233.2S386.6,494.1,258,494.1z"/>
<path class="st0" d="M369.8,190.6c0-9.3-7.6-16.9-16.9-16.9H161.1c-9.3,0-16.9,7.6-16.9,16.9v131.1c0,9.3,7.6,16.9,16.9,16.9H353
	c9.3,0,16.9-7.6,16.9-16.9h-0.1V190.6z M352.8,323.7c-1.4,1.5-3.3,2.2-5.1,2.2c-1.7,0-3.5-0.6-4.9-1.9l-63.1-60L262,279.8
	c-1.3,1.2-3,1.8-4.7,1.8c-1.7,0-3.4-0.6-4.7-1.8l-17.2-15.4l-63.5,59.4c-1.4,1.3-3.1,1.9-4.8,1.9c-1.9,0-3.8-0.8-5.2-2.3
	c-2.7-2.9-2.5-7.4,0.3-10l62.6-58.6l-62.8-56.2c-2.9-2.6-3.2-7.1-0.6-10c2.6-2.9,7.1-3.2,10-0.6l68,60.8c0.4,0.3,0.8,0.6,1.2,1
	c0,0.1,0.1,0.1,0.1,0.2l16.7,14.9l85.6-76.9c2.9-2.6,7.4-2.4,10,0.5c2.6,2.9,2.4,7.4-0.5,10l-62.1,55.7l62.4,59.2
	C355.4,316.4,355.5,320.9,352.8,323.7z"/>
<path class="st0" d="M258,57.9C148,57.9,58.9,147,58.9,257S148,456.1,258,456.1S457.1,367,457.1,257S368,57.9,258,57.9z M384,321.7
	c0,17.1-13.9,31-31,31H161.1c-17.1,0-31-13.9-31-31V190.5c0-17.1,13.9-31,31-31H353c17.1,0,31,14,31,31.1V321.7z"/>
</svg>
