<?xml version="1.0" encoding="utf-8"?>
<!-- Generator: Adobe Illustrator 22.0.0, SVG Export Plug-In . SVG Version: 6.00 Build 0)  -->
<svg version="1.1" id="Capa_1" xmlns="http://www.w3.org/2000/svg" xmlns:xlink="http://www.w3.org/1999/xlink" x="0px" y="0px"
	 viewBox="0 0 512 512" style="enable-background:new 0 0 512 512;" xml:space="preserve">
<style type="text/css">
	.st0{fill:#BC3432;}
</style>
<path class="st0" d="M256,0C114.6,0,0,114.6,0,256c0,141.4,114.6,256,256,256s256-114.6,256-256C512,114.6,397.4,0,256,0z
	 M256,493.1c-128.6,0-233.3-104.6-233.3-233.2C22.7,131.2,127.4,26.6,256,26.6c128.6,0,233.2,104.6,233.2,233.2
	S384.6,493.1,256,493.1z"/>
<g>
	<path class="st0" d="M256,56.9C146,56.9,56.9,146,56.9,256S146,455.1,256,455.1S455.1,366,455.1,256S366,56.9,256,56.9z M373.3,358
		l-17.8,17.8c-3.2,3.2-12.5,5.2-12.8,5.2c-56.3,0.5-110.5-21.6-150.3-61.4c-39.9-40-62.1-94.3-61.5-150.8c0,0,2-9.1,5.2-12.2
		l17.8-17.8c6.5-6.5,19-9.5,27.8-6.6l3.7,1.2c8.7,2.9,17.9,12.6,20.3,21.5l9,32.8c2.4,8.9-0.8,21.6-7.4,28.1l-11.9,11.9
		c11.7,43.2,45.5,77.1,88.7,88.8l11.9-11.9c6.5-6.5,19.2-9.8,28.1-7.4l32.8,9c8.9,2.4,18.6,11.6,21.5,20.3l1.2,3.8
		C382.8,339,379.9,351.5,373.3,358z"/>
	<path class="st0" d="M256,56.9C146,56.9,56.9,146,56.9,256S146,455.1,256,455.1S455.1,366,455.1,256S366,56.9,256,56.9z M373.3,358
		l-17.8,17.8c-3.2,3.2-12.5,5.2-12.8,5.2c-56.3,0.5-110.5-21.6-150.3-61.4c-39.9-40-62.1-94.3-61.5-150.8c0,0,2-9.1,5.2-12.2
		l17.8-17.8c6.5-6.5,19-9.5,27.8-6.6l3.7,1.2c8.7,2.9,17.9,12.6,20.3,21.5l9,32.8c2.4,8.9-0.8,21.6-7.4,28.1l-11.9,11.9
		c11.7,43.2,45.5,77.1,88.7,88.8l11.9-11.9c6.5-6.5,19.2-9.8,28.1-7.4l32.8,9c8.9,2.4,18.6,11.6,21.5,20.3l1.2,3.8
		C382.8,339,379.9,351.5,373.3,358z"/>
	<path class="st0" d="M256,56.9C146,56.9,56.9,146,56.9,256S146,455.1,256,455.1S455.1,366,455.1,256S366,56.9,256,56.9z M373.3,358
		l-17.8,17.8c-3.2,3.2-12.5,5.2-12.8,5.2c-56.3,0.5-110.5-21.6-150.3-61.4c-39.9-40-62.1-94.3-61.5-150.8c0,0,2-9.1,5.2-12.2
		l17.8-17.8c6.5-6.5,19-9.5,27.8-6.6l3.7,1.2c8.7,2.9,17.9,12.6,20.3,21.5l9,32.8c2.4,8.9-0.8,21.6-7.4,28.1l-11.9,11.9
		c11.7,43.2,45.5,77.1,88.7,88.8l11.9-11.9c6.5-6.5,19.2-9.8,28.1-7.4l32.8,9c8.9,2.4,18.6,11.6,21.5,20.3l1.2,3.8
		C382.8,339,379.9,351.5,373.3,358z"/>
</g>
</svg>
