<?xml version="1.0" encoding="utf-8"?>
<!-- Generator: Adobe Illustrator 22.0.0, SVG Export Plug-In . SVG Version: 6.00 Build 0)  -->
<svg version="1.1" id="Capa_1" xmlns="http://www.w3.org/2000/svg" xmlns:xlink="http://www.w3.org/1999/xlink" x="0px" y="0px"
	 viewBox="0 0 512 512" style="enable-background:new 0 0 512 512;" xml:space="preserve">
<style type="text/css">
	.st0{fill:#BC3432;}
</style>
<path class="st0" d="M256,0C114.6,0,0,114.6,0,256s114.6,256,256,256s256-114.6,256-256S397.4,0,256,0z M256,493.1
	c-128.6,0-233.3-104.6-233.3-233.2C22.7,131.2,127.4,26.6,256,26.6s233.2,104.6,233.2,233.2S384.6,493.1,256,493.1z"/>
<path class="st0" d="M256,60.7c-103,0-188,78.7-198.1,179.2H248l-14.6-14.6c-7.2-7.2-7.2-18.9,0-26.1c7.2-7.2,18.9-7.2,26.1,0
	l46.1,46.1l0,0l13,13l-13,13l0,0l-43.1,43.1c-3.6,3.6-8.3,5.4-13,5.4s-9.4-1.8-13-5.4c-7.2-7.2-7.2-18.9,0-26.1l11.6-11.6H57.8
	C66.4,378.6,151.9,459,256,459c109.8,0,199.1-89.3,199.1-199.1S365.8,60.7,256,60.7z"/>
<circle class="st0" cx="256.5" cy="259.9" r="238.1"/>
</svg>
